<svg id="Capa_1" enable-background="new 0 0 512 512" height="512" viewBox="0 0 512 512" width="512" xmlns="http://www.w3.org/2000/svg"><g><g><circle cx="256" cy="256" fill="#ffe377" r="256"/></g><path d="m274.92 130.872-29.801-29.801-137.196 31.656 21.41 21.41v111.58l-.329.467 47.517 47.517.353 109.8-16.902 23.987 62.298 62.298c11.039 1.453 22.295 2.214 33.73 2.214 141.385 0 256-114.615 256-256 0-17.951-1.856-35.468-5.372-52.377l-102.552-102.552z" fill="#edbe00"/><g><g><path d="m128.825 215.684h95.394v18.984h-95.394z" fill="#62320d"/></g><g><path d="m176.521 331.422-57.188-57.188v-157.335h18.984v149.471l38.204 38.206 38.206-38.206v-149.471h18.984v157.335z" fill="#62320d"/></g><g><path d="m167.03 317.999h18.984v112.941h-18.984z" fill="#62320d"/></g><g fill="#804111"><path d="m128.825 215.684h47.697v18.984h-47.697z"/><path d="m176.522 304.576h-.001l-38.204-38.206v-149.471h-18.984v157.335l57.188 57.188h.001z"/><path d="m167.03 317.999h9.492v112.941h-9.492z"/></g><path d="m159.973 414.391h33.097v33.097h-33.097z" fill="#005fe0"/><path d="m107.924 101.071h137.195v31.656h-137.195z" fill="#005fe0"/><path d="m176.522 101.071h68.598v31.656h-68.598z" fill="#0051be"/><path d="m176.521 414.391h16.549v33.097h-16.549z" fill="#0051be"/></g><g><g><path d="m287.782 215.684h95.394v18.984h-95.394z" fill="#62320d"/></g><g><path d="m335.478 331.422-57.188-57.188v-157.335h18.984v149.471l38.204 38.206 38.206-38.206v-149.471h18.983v157.335z" fill="#62320d"/></g><g><path d="m325.986 317.999h18.984v112.941h-18.984z" fill="#62320d"/></g><g fill="#804111"><path d="m287.782 215.684h47.697v18.984h-47.697z"/><path d="m335.478 304.576-38.204-38.206v-149.471h-18.984v157.335l57.188 57.188z"/><path d="m325.986 317.999h9.492v112.941h-9.492z"/></g><path d="m318.93 414.391h33.097v33.097h-33.097z" fill="#005fe0"/><path d="m266.881 101.071h137.195v31.656h-137.195z" fill="#005fe0"/><path d="m335.478 101.071h68.598v31.656h-68.598z" fill="#0051be"/><path d="m335.478 414.391h16.549v33.097h-16.549z" fill="#0051be"/></g></g></svg>