<svg height="512" viewBox="0 0 64 64" width="512" xmlns="http://www.w3.org/2000/svg"><g id="doctor-covid19-coronavirus-medical-healthcare"><path d="m27 32 5 3 5-3v-3.76a7.982 7.982 0 0 1 -10 0z" fill="#ffac96"/><path d="m32 30a7.963 7.963 0 0 1 -5-1.76v2a7.982 7.982 0 0 0 10 0v-2a7.963 7.963 0 0 1 -5 1.76z" fill="#ff9478"/><path d="m42 21a2.006 2.006 0 0 0 2-2v-1a2.006 2.006 0 0 0 -2-2h-2v5z" fill="#ffac96"/><path d="m22 16a2.006 2.006 0 0 0 -2 2v1a2.006 2.006 0 0 0 2 2h2v-5z" fill="#ffac96"/><path d="m32 40-2.26-.75-1.74 21.75h8l-1.74-21.75z" fill="#006df0"/><path d="m29.89 36.69-.15 2.56-1.74 21.75h-17v-17.19a9.992 9.992 0 0 1 7.57-9.7l1.46-.36 2.97-.75 4 6z" fill="#9bc9ff"/><circle cx="20" cy="46" fill="none" r="3"/><path d="m32 35-2.111 1.689-.149 2.561 2.26.75 2.26-.75-.149-2.561z" fill="#004fac"/><path d="m53 43.81v17.19h-17l-1.74-21.75-.15-2.56 2.89 2.31 4-6 2.97.75 1.46.36a9.992 9.992 0 0 1 7.57 9.7z" fill="#9bc9ff"/><path d="m45 38h-2a1 1 0 0 0 -1 1v2.422a4.95 4.95 0 0 1 4 0v-2.422a1 1 0 0 0 -1-1z" fill="#d80027"/><path d="m27 39 5-4-5-3-4 1z" fill="#d1e7f8"/><path d="m41 33-4-1-5 3 5 4z" fill="#d1e7f8"/><path d="m37 39 .054-.081-.509-.283z" fill="#d1e7f8"/><path d="m38 12h-12a2 2 0 0 0 -2 2v8a8 8 0 0 0 16 0v-8a2 2 0 0 0 -2-2z" fill="#ffbcab"/><circle cx="20" cy="46" fill="#d80027" r="3"/><path d="m21 16.279v-7.279a4 4 0 0 1 4-4h2a2 2 0 0 1 2 2 4 4 0 0 1 4-4h4a6 6 0 0 1 6 6v7.279a1.975 1.975 0 0 0 -1-.279h-2v-2a2 2 0 0 0 -2-2h-12a2 2 0 0 0 -2 2v2h-2a1.975 1.975 0 0 0 -1 .279z" fill="#414042"/><path d="m27 5h-2a4 4 0 0 0 -4 4v7.279a1.975 1.975 0 0 1 1-.279h2v-2a2 2 0 0 1 2-2h3v-5a2 2 0 0 0 -2-2z" fill="#58595b"/><g fill="#231f20"><path d="m45.67 33.14-.79-.2a5.006 5.006 0 0 0 -4.88-3.94h-2v-.31a8.955 8.955 0 0 0 3-6.69h1a3.009 3.009 0 0 0 3-3v-1a2.986 2.986 0 0 0 -1-2.22v-6.78a7.008 7.008 0 0 0 -7-7h-4a4.989 4.989 0 0 0 -4.33 2.51 2.994 2.994 0 0 0 -1.67-.51h-2a5 5 0 0 0 -5 5v6.78a2.986 2.986 0 0 0 -1 2.22v1a3.009 3.009 0 0 0 3 3h1a8.955 8.955 0 0 0 3 6.69v.31h-2a5.006 5.006 0 0 0 -4.88 3.94l-.79.2a10.968 10.968 0 0 0 -8.33 10.67v17.19a1 1 0 0 0 1 1h42a1 1 0 0 0 1-1v-17.19a10.968 10.968 0 0 0 -8.33-10.67zm-.67 5.86v1.09a5.6 5.6 0 0 0 -2 0v-1.09zm-5-8a3.025 3.025 0 0 1 2.5 1.34l-1.26-.31-3.24-.81v-.22zm-8 2.83-4-2.4v-1.38a8.9 8.9 0 0 0 8 0v1.38zm1.2 4.72-1.2.4-1.2-.4.11-1.4 1.09-.87 1.09.87zm3.96-5.48 2.22.56-2.61 3.91-3.02-2.42zm5.84-15.07v1a1 1 0 0 1 -1 1h-1v-3h1a1 1 0 0 1 1 1zm-20 2h-1a1 1 0 0 1 -1-1v-1a1 1 0 0 1 1-1h1zm0-6v1h-1v-6a3.009 3.009 0 0 1 3-3h2a1 1 0 0 1 1 1 1 1 0 0 0 2 0 3.009 3.009 0 0 1 3-3h4a5 5 0 0 1 5 5v6h-1v-1a3.009 3.009 0 0 0 -3-3h-12a3.009 3.009 0 0 0 -3 3zm2 8v-8a1 1 0 0 1 1-1h12a1 1 0 0 1 1 1v8a7 7 0 0 1 -14 0zm1.84 11.07 3.41 2.05-3.02 2.42-2.61-3.91zm-2.84-2.07h2v.22l-3.24.81-1.26.31a3.025 3.025 0 0 1 2.5-1.34zm-4 13a2 2 0 1 1 -2 2 2.006 2.006 0 0 1 2-2zm7.08 16h-6.08v-8a1 1 0 0 0 -2 0v8h-7v-16.19a8.978 8.978 0 0 1 6.81-8.73l.19-.05v7.11a4 4 0 1 0 2 0v-7.61l1.56-.39 3.61 5.41a.961.961 0 0 0 .68.44.757.757 0 0 0 .15.01.977.977 0 0 0 .62-.22l1.15-.91zm2 0 1.56-19.4 1.05.35a.986.986 0 0 0 .62 0l1.05-.35 1.56 19.4zm22.92 0h-7v-8a1 1 0 0 0 -2 0v8h-6.08l-1.69-21.13 1.15.91a.977.977 0 0 0 .62.22.757.757 0 0 0 .15-.01.961.961 0 0 0 .68-.44l3.61-5.41 1.56.39v2.47a2.006 2.006 0 0 0 -2 2v1.81a6 6 0 0 0 -3 5.19v2a2.006 2.006 0 0 0 2 2h1a1 1 0 0 0 0-2h-1v-2a4 4 0 0 1 8 0v2h-1a1 1 0 0 0 0 2h1a2.006 2.006 0 0 0 2-2v-2a6 6 0 0 0 -3-5.19v-1.81a2.006 2.006 0 0 0 -2-2v-1.97l.19.05a8.978 8.978 0 0 1 6.81 8.73z"/><path d="m29.707 23.293a1 1 0 0 0 -1.407 1.416 5.246 5.246 0 0 0 7.412 0 1 1 0 0 0 -1.421-1.409 3.244 3.244 0 0 1 -4.582 0z"/><path d="m29 19a1 1 0 0 0 1-1v-1a1 1 0 0 0 -2 0v1a1 1 0 0 0 1 1z"/><path d="m35 19a1 1 0 0 0 1-1v-1a1 1 0 0 0 -2 0v1a1 1 0 0 0 1 1z"/><path d="m20 47a1 1 0 1 0 -.71-1.71 1.014 1.014 0 0 0 0 1.42 1.052 1.052 0 0 0 .71.29z"/></g></g></svg>