<svg id="Capa_1" enable-background="new 0 0 512 512" height="512" viewBox="0 0 512 512" width="512" xmlns="http://www.w3.org/2000/svg"><g><circle cx="256" cy="256" fill="#54747f" r="256"/><path d="m275.914 511.234c125.506-9.657 225.664-109.814 235.32-235.32l-201.914-201.914-133.221 129.146-15.528-15.38c.044-.062-17.179-12.643-17.179-12.643-17.027 23.682-17.027 138.07 0 161.752 0 0 59.26 58.929 59.288 58.968v42.157z" fill="#455e72"/><g><path d="m143.392 336.876c-17.027-23.682-26.025-51.644-26.025-80.876s8.998-57.194 26.025-80.876l17.308 12.455c-14.392 20.026-22.005 43.687-22.005 68.421s7.613 48.394 22.005 68.421z" fill="#94e5cf"/><path d="m368.608 336.876-17.308-12.455c14.392-20.026 22.005-43.687 22.005-68.421s-7.613-48.394-22.005-68.421l17.308-12.455c17.027 23.682 26.025 51.644 26.025 80.876s-8.998 57.194-26.025 80.876z" fill="#7ccbbf"/><g fill="#e9f2f2"><path d="m256 244.925c18.712-5.762 36.159-7.774 49.05-9.159 17.725-1.916 29.43-3.176 33.908-13.372 4.197-9.518-2.801-19.037-5.436-22.62-15.829-21.526-24.202-46.134-24.202-71.16v-54.614h-53.32-53.32v54.614c0 25.025-8.373 49.634-24.202 71.16-12.372 16.829-15.829 30.909-10.279 41.865 6.946 13.747 23.65 14.361 23.817 14.361 21.194 0 43.788-4.869 63.984-11.075z"/><path d="m343.802 270.361c-6.947-13.747-23.651-14.361-23.818-14.361-21.194 0-43.789 4.869-63.984 11.075-18.712 5.762-36.159 7.775-49.051 9.159-17.725 1.916-29.43 3.176-33.908 13.372-4.197 9.518 2.801 19.037 5.436 22.619 15.829 21.526 24.202 46.135 24.202 71.16v54.615h53.321 53.32v-54.614c0-25.025 8.373-49.634 24.202-71.16 12.373-16.829 15.83-30.909 10.28-41.865z"/></g><g fill="#d5e5e5"><path d="m338.959 222.394c4.197-9.518-2.801-19.037-5.436-22.62-15.829-21.526-24.202-46.134-24.202-71.16v-54.614h-53.321v170.925c18.712-5.762 36.159-7.774 49.05-9.159 17.725-1.917 29.431-3.177 33.909-13.372z"/><path d="m309.32 383.386c0-25.025 8.373-49.634 24.202-71.16 12.372-16.829 15.829-30.909 10.279-41.865-6.946-13.747-23.65-14.361-23.817-14.361-21.194 0-43.788 4.868-63.984 11.075v170.925h53.32z"/></g></g></g></svg>