<svg id="Capa_1" enable-background="new 0 0 512 512" height="512" viewBox="0 0 512 512" width="512" xmlns="http://www.w3.org/2000/svg"><g><path d="m504.5 310.596c4.142 0 7.5-3.357 7.5-7.5v-159.416c0-20.678-16.822-37.5-37.5-37.5h-78.664v-68.68c0-20.678-16.822-37.5-37.5-37.5h-204.672c-20.678 0-37.5 16.822-37.5 37.5v68.68h-78.664c-20.678 0-37.5 16.822-37.5 37.5v254.64c0 20.678 16.822 37.5 37.5 37.5h181.772v31.18h-9.475c-19.023 0-34.5 15.477-34.5 34.5 0 5.79 4.71 10.5 10.5 10.5h140.405c5.79 0 10.5-4.71 10.5-10.5 0-19.023-15.477-34.5-34.5-34.5h-9.475v-31.18h181.773c20.678 0 37.5-16.822 37.5-37.5v-60.225c0-4.143-3.358-7.5-7.5-7.5s-7.5 3.357-7.5 7.5v60.225c0 12.406-10.093 22.5-22.5 22.5h-189.195c-.026 0-.051-.004-.077-.004s-.051.004-.077.004h-58.301c-.026 0-.051-.004-.077-.004s-.051.004-.077.004h-189.196c-12.407 0-22.5-10.094-22.5-22.5v-254.64c0-12.406 10.093-22.5 22.5-22.5h78.664v15h-75.664c-5.79 0-10.5 4.71-10.5 10.5v251.64c0 4.143 3.358 7.5 7.5 7.5h434c5.79 0 10.5-4.71 10.5-10.5v-248.64c0-5.79-4.71-10.5-10.5-10.5h-75.664v-15h78.664c12.407 0 22.5 10.094 22.5 22.5v159.416c0 4.142 3.358 7.5 7.5 7.5zm-270.228 125.224h43.456v31.18h-43.456zm67.931 46.18c9.204 0 16.939 6.409 18.976 15h-130.358c2.037-8.591 9.772-15 18.976-15zm-186.039-91.18h-71.164v-239.64h71.164zm264.672 0h-249.672v-353.32c0-12.406 10.093-22.5 22.5-22.5h204.672c12.407 0 22.5 10.094 22.5 22.5zm86.164-239.64v239.64h-71.164v-239.64zm-124.643 119.82h-172.714c-4.142 0-7.5 3.357-7.5 7.5s3.358 7.5 7.5 7.5h172.714c4.142 0 7.5-3.357 7.5-7.5s-3.358-7.5-7.5-7.5zm-86.357-226c-20.861 0-40.713 6.604-57.41 19.1-3.316 2.481-3.993 7.183-1.511 10.498 2.482 3.316 7.182 3.994 10.499 1.512 14.082-10.54 30.826-16.11 48.422-16.11 44.664 0 81 36.337 81 81s-36.336 81-81 81-81-36.337-81-81c0-14.476 3.882-28.69 11.227-41.106 2.109-3.564.929-8.164-2.636-10.273-3.565-2.108-8.165-.929-10.274 2.637-8.712 14.725-13.317 31.581-13.317 48.742 0 52.935 43.065 96 96 96s96-43.065 96-96-43.065-96-96-96zm-34.556 134.605c10.451 10.548 28.381 10.623 38.888-.003l46.839-46.84c8.991-8.917 8.507-24.112-.781-32.564-8.892-8.092-22.659-7.633-31.338 1.045l-34.165 34.165-4.24-4.24c-8.632-8.719-23.164-8.658-31.821-.001-8.772 8.772-8.773 23.046 0 31.819zm-6.01-37.831c2.886-2.886 7.734-2.902 10.607-.001l7.421 7.422c4.005 4.047 10.832 4.063 14.85.002l37.347-37.347c2.955-2.956 7.728-3.206 10.637-.559 3.119 2.838 3.276 7.89.27 10.863l-46.839 46.84c-2.355 2.354-5.494 3.651-8.839 3.651s-6.484-1.296-8.837-3.648l-16.616-16.617c-2.925-2.924-2.925-7.682-.001-10.606zm126.923 174.226h-172.714c-4.142 0-7.5 3.357-7.5 7.5s3.358 7.5 7.5 7.5h172.714c4.142 0 7.5-3.357 7.5-7.5s-3.358-7.5-7.5-7.5z"/></g></svg>