<svg id="Capa_1" enable-background="new 0 0 512 512" height="512" viewBox="0 0 512 512" width="512" xmlns="http://www.w3.org/2000/svg"><g><g><path d="m392.508 458.667-64.872-168.667h-71.636l-21.333 94 21.333 74.667z" fill="#b0b0b0"/><path d="m211.032 458.667h44.968v-168.667h-109.84z" fill="#cfcfcf"/></g><path d="m421 298.667h-30v-268.667h-64.787l-75.607 75.606-21.213-21.212 84.395-84.394h107.212z" fill="#efe2dd"/><g><path d="m465.987 297.608-75.581-34.354h-134.406l-21.333 46.079 21.333 47.43h114.152l128.604 58.457 6.211-13.664c17.911-39.405.425-86.036-38.98-103.948z" fill="#00969c"/><path d="m205.521 263.254-85.192-72.086c-14.303-12.102-32.051-18.581-50.577-18.581-2.207 0-4.425.092-6.649.277-20.896 1.741-39.863 11.516-53.407 27.523l-9.696 11.458 171.268 144.918h84.732v-93.509z" fill="#00b6be"/></g><g><path d="m452.333 512c0-43.56-35.44-79-79-79h-117.333l-21.333 47 21.333 32z" fill="#cfcfcf"/><path d="m123.667 512h132.333v-79h-53.333c-43.561 0-79 35.44-79 79z" fill="#e5e5e5"/></g><g><path d="m292.004 54.562-8.665-8.663c-8.087-8.087-17.374-14.433-27.339-19.007l-10.667 58.442 10.667 63.957 43.558 31.494 4.449-6.715c24.825-37.466 19.778-87.727-12.003-119.508z" fill="#878787"/><path d="m163.833 33.895-6.715 4.449 60.215 82.99 38.667 27.957v-122.399c-29.196-13.4-64.236-11.506-92.167 7.003z" fill="#9b9b9b"/></g><path d="m157.118 38.344v37.519l101.749 104.922h40.691z" fill="#ffd27b"/></g></svg>