<svg width="449" height="491" viewBox="0 0 449 491" fill="none" xmlns="http://www.w3.org/2000/svg">
<path d="M445.219 237.781L210.552 3.11502C208.548 1.11502 205.831 -0.004981 203 1.89949e-05H11C5.109 -0.010981 0.324997 4.75702 0.313997 10.648C0.308997 13.488 1.437 16.213 3.448 18.219L230.584 245.334L3.448 472.448C-0.723003 476.608 -0.731002 483.362 3.429 487.533C5.435 489.544 8.16 490.672 11 490.667H203C205.831 490.672 208.548 489.552 210.552 487.552L445.219 252.885C449.39 248.725 449.398 241.971 445.238 237.8C445.231 237.794 445.225 237.788 445.219 237.781Z" fill="#E43F5A"/>
</svg>
